Coordinates
version=1
nRows=13
nColumns=40
inDegrees=yes

Units are S.I. units (second, meters, Newtons, ...)
Angles are in degrees.

endheader
time	pelvis_tilt	pelvis_list	pelvis_rotation	pelvis_tx	pelvis_ty	pelvis_tz	hip_flexion_r	hip_adduction_r	hip_rotation_r	knee_angle_r	knee_angle_r_beta	ankle_angle_r	subtalar_angle_r	mtp_angle_r	hip_flexion_l	hip_adduction_l	hip_rotation_l	knee_angle_l	knee_angle_l_beta	ankle_angle_l	subtalar_angle_l	mtp_angle_l	lumbar_extension	lumbar_bending	lumbar_rotation	arm_flex_r	arm_add_r	arm_rot_r	elbow_flex_r	pro_sup_r	wrist_flex_r	wrist_dev_r	arm_flex_l	arm_add_l	arm_rot_l	elbow_flex_l	pro_sup_l	wrist_flex_l	wrist_dev_l
     38.20000000	     -2.47172398	     -4.57190760	      3.16735174	      1.09102119	      0.93065300	      0.47049421	     12.42059676	      1.15928245	    -16.18014852	     18.72801023	     18.72801023	     10.46486364	      1.22809116	     -4.13872370	     27.34996794	    -13.84954378	      2.41002374	     62.22659992	     62.22659992	      7.58679427	    -15.38011968	      5.48536774	    -10.56427476	      5.59133207	      2.59935398	     13.66221960	    -21.19357495	     -3.88483415	     66.65220165	     45.30383080	      0.00000000	      0.00000000	      6.09712287	     -9.43685310	     -7.34862386	     33.97964587	     45.29019788	      0.00000000	      0.00000000
     38.21350000	     -2.66670986	     -4.45361722	      3.44762669	      1.08925220	      0.93111783	      0.47086800	     12.02816054	      1.14538857	    -16.28726442	     18.12954693	     18.12954693	     10.49602941	      1.19243180	     -4.13914550	     28.59336661	    -13.52891670	      2.42614239	     60.54048392	     60.54048392	      7.67497568	    -16.02153570	      5.78492612	    -10.56871195	      5.48968991	      2.69463141	     15.48185721	    -21.35524245	     -4.20038450	     67.91054206	     45.28244299	      0.00000000	      0.00000000	      4.89341404	     -8.95878771	     -7.22869598	     33.04300279	     45.26806503	      0.00000000	      0.00000000
     38.22700000	     -2.84904554	     -4.37981362	      3.70384324	      1.08750430	      0.93151629	      0.47124969	     11.61124193	      1.18183462	    -16.42186087	     17.50387720	     17.50387720	     10.51327849	      1.25499159	     -4.17640095	     29.68212873	    -13.27988750	      2.35832324	     58.61118292	     58.61118292	      7.77608067	    -16.51791749	      6.09027928	    -10.60526654	      5.43934522	      2.81634130	     17.32290176	    -21.54602491	     -4.50096175	     69.24149025	     45.25823736	      0.00000000	      0.00000000	      3.68190153	     -8.49911754	     -7.12010714	     32.19648622	     45.24567029	      0.00000000	      0.00000000
     38.24050000	     -3.00526364	     -4.33081280	      3.98429463	      1.08580871	      0.93187322	      0.47153001	     11.14910668	      1.23893357	    -16.61546979	     16.84486024	     16.84486024	     10.50311178	      1.35670693	     -4.34455899	     30.61243793	    -13.03540207	      2.27904386	     56.42480928	     56.42480928	      7.87906802	    -16.90726595	      6.49531791	    -10.66987424	      5.43838086	      2.85756159	     19.13352160	    -21.68034800	     -4.77512960	     70.74304301	     45.22836398	      0.00000000	      0.00000000	      2.47080500	     -8.05536167	     -7.01154729	     31.24241114	     45.22805756	      0.00000000	      0.00000000
     38.25400000	     -3.18175309	     -4.27258228	      4.23209859	      1.08411305	      0.93214268	      0.47173458	     10.72807635	      1.28713513	    -16.76059669	     16.20783722	     16.20783722	     10.48746643	      1.43462558	     -4.48240283	     31.39907287	    -12.76605149	      2.13786920	     53.95214493	     53.95214493	      7.99501330	    -17.23829278	      7.01314539	    -10.71698766	      5.40411604	      3.00341724	     20.87117645	    -21.84076967	     -5.06766029	     72.05800034	     45.20477127	      0.00000000	      0.00000000	      1.34558554	     -7.63649035	     -6.90978478	     30.43921761	     45.20835049	      0.00000000	      0.00000000
     38.26750000	     -3.42847056	     -4.24783014	      4.44469668	      1.08238555	      0.93217478	      0.47185199	     10.43954189	      1.34678448	    -16.88138027	     15.66413479	     15.66413479	     10.50671589	      1.49507553	     -4.59798145	     32.13451545	    -12.53704436	      1.92382444	     51.23975709	     51.23975709	      8.17211760	    -17.38053439	      7.51539327	    -10.68566460	      5.36841524	      3.26572426	     22.57058494	    -22.10820185	     -5.38937777	     73.17407562	     45.18811823	      0.00000000	      0.00000000	      0.27239957	     -7.20346795	     -6.81479583	     29.77743145	     45.18532668	      0.00000000	      0.00000000
     38.28100000	     -3.58352147	     -4.25036100	      4.70047350	      1.08074260	      0.93230072	      0.47172444	      9.96348610	      1.45358690	    -17.06616767	     14.94963524	     14.94963524	     10.43213413	      1.61752434	     -4.85266736	     32.62170699	    -12.23440539	      1.82328741	     48.23644430	     48.23644430	      8.31868657	    -17.49774702	      8.13639458	    -10.76062215	      5.44203101	      3.22063016	     24.25412629	    -22.00506471	     -5.70696356	     74.67716969	     45.15942713	      0.00000000	      0.00000000	     -0.81406087	     -6.86575553	     -6.67352104	     28.92363311	     45.16075577	      0.00000000	      0.00000000
     38.29450000	     -3.81277353	     -4.25139010	      4.91383659	      1.07905505	      0.93221063	      0.47151522	      9.63737359	      1.52966989	    -17.20499684	     14.35619613	     14.35619613	     10.38991600	      1.70067080	     -5.11586278	     33.04333338	    -11.92946663	      1.63758930	     45.01011334	     45.01011334	      8.47523144	    -17.39765966	      8.65469681	    -10.75129623	      5.45293169	      3.35747556	     25.79795388	    -22.02223408	     -6.03840651	     75.93556063	     45.13860902	      0.00000000	      0.00000000	     -1.77974173	     -6.54482865	     -6.53983620	     28.23878252	     45.13614842	      0.00000000	      0.00000000
     38.30800000	     -4.06658874	     -4.27830891	      5.12258241	      1.07738486	      0.93197445	      0.47114036	      9.35841785	      1.61678302	    -17.33505914	     13.80088953	     13.80088953	     10.38065329	      1.77825454	     -5.37439726	     33.37184016	    -11.60435023	      1.48354743	     41.61947199	     41.61947199	      8.56882469	    -17.07893391	      9.09055807	    -10.69097539	      5.48297917	      3.50673638	     27.29589916	    -22.01977859	     -6.37688070	     77.13410342	     45.11955617	      0.00000000	      0.00000000	     -2.70731545	     -6.23512761	     -6.40313289	     27.62484247	     45.10921692	      0.00000000	      0.00000000
     38.32150000	     -4.36251625	     -4.31386872	      5.31610700	      1.07569296	      0.93157349	      0.47058136	      9.14126905	      1.69313404	    -17.46416954	     13.27512483	     13.27512483	     10.37558255	      1.85178611	     -5.60115251	     33.62471752	    -11.24676554	      1.34126044	     38.13532627	     38.13532627	      8.65812924	    -16.51237174	      9.45343609	    -10.59696788	      5.51316673	      3.63783097	     28.75450035	    -22.01113097	     -6.70959105	     78.26725456	     45.10191528	      0.00000000	      0.00000000	     -3.56234199	     -5.91993023	     -6.26893371	     27.08723278	     45.08128258	      0.00000000	      0.00000000
     38.33500000	     -4.51992456	     -4.41482957	      5.55586731	      1.07417847	      0.93130655	      0.46981698	      8.70169262	      1.85498063	    -17.66928509	     12.61946501	     12.61946501	     10.27261051	      2.01246641	     -6.07878785	     33.61515784	    -10.90180753	      1.32683298	     34.60056773	     34.60056773	      8.55781981	    -15.76618527	      9.58683584	    -10.64013960	      5.65894253	      3.56208084	     30.12708477	    -21.64407967	     -7.15279373	     79.79014518	     45.07681864	      0.00000000	      0.00000000	     -4.39994991	     -5.67555707	     -6.02587505	     26.40359976	     45.04306068	      0.00000000	      0.00000000
     38.34850000	     -4.80753331	     -4.48606605	      5.72702239	      1.07265103	      0.93074626	      0.46899894	      8.51342532	      1.94231334	    -17.78028239	     12.18400210	     12.18400210	     10.31623471	      2.06749952	     -6.35593743	     33.69262337	    -10.56323611	      1.15748605	     31.25765797	     31.25765797	      8.47262515	    -14.61649416	      9.88570350	    -10.51354596	      5.68845478	      3.73286241	     31.33359656	    -21.58015737	     -7.46285579	     80.76855016	     45.06267619	      0.00000000	      0.00000000	     -5.12518916	     -5.45903074	     -5.88937835	     25.96173899	     45.01615884	      0.00000000	      0.00000000
     38.36200000	     -4.94136451	     -4.59482883	      5.92642901	      1.07138227	      0.93033616	      0.46800591	      8.09005430	      2.09159537	    -17.93514452	     11.64581215	     11.64581215	     10.33257093	      2.19741662	     -6.73518891	     33.54869933	    -10.26611903	      0.98827717	     28.14985460	     28.14985460	      8.31997659	    -13.25498573	     10.09356535	    -10.52020435	      5.79548322	      3.71483131	     32.49616826	    -21.22379586	     -7.83319672	     82.00127212	     45.04294719	      0.00000000	      0.00000000	     -5.85566200	     -5.29674268	     -5.69589897	     25.42748091	     44.98305004	      0.00000000	      0.00000000
